<svg xmlns="http://www.w3.org/2000/svg" viewBox="0 0 24 24" fill="#DC3545">
  <path d="M12 2C6.48 2 2 6.48 2 12s4.48 10 10 10 10-4.48 10-10S17.52 2 12 2zm0 18c-4.41 0-8-3.59-8-8s3.59-8 8-8 8 3.59 8 8-3.59 8-8 8zm-1.41-11.59L12 9.83l1.41-1.42L14.83 10 12 12.83 9.17 10l-1.42 1.41L10.59 14l-1.42 1.41L10.59 17 12 15.59l1.41 1.41L14.83 14l-2.83-2.83L14.83 8.34 13.41 7z"/>
  <path d="M12 2C6.48 2 2 6.48 2 12s4.48 10 10 10 10-4.48 10-10S17.52 2 12 2zm0 18c-4.42 0-8-3.58-8-8s3.58-8 8-8 8 3.58 8 8-3.58 8-8 8zM7.5 10.5l9 9-1.5 1.5-9-9 1.5-1.5z"/>
</svg>
