<svg xmlns="http://www.w3.org/2000/svg" viewBox="0 0 24 24" width="20" height="20" aria-hidden="true"><path fill="#8E24AA" d="M19.14 12.94c.04-.31.06-.63.06-.94s-.02-.63-.06-.94l2.03-1.58a.5.5 0 0 0 .12-.64l-1.92-3.32a.5.5 0 0 0-.6-.22l-2.39.96a7.007 7.007 0 0 0-1.62-.94l-.36-2.53A.488.488 0 0 0 14 2h-4a.488.488 0 0 0-.5.42l-.36 2.53c-.59.22-1.14.52-1.62.94l-2.39-.96a.5.5 0 0 0-.6.22l-1.92 3.32a.5.5 0 0 0 .12.64l2.03 1.58c-.04.31-.06.63-.06.94s.02.63.06.94l-2.03 1.58a.5.5 0 0 0-.12.64l1.92 3.32c.14.24.44.32.68.22l2.39-.96c.48.42 1.03.77 1.62.94l.36 2.53c.05.28.27.42.5.42h4c.23 0 .45-.14.5-.42l.36-2.53c.59-.17 1.14-.52 1.62-.94l2.39.96c.24.1.54.02.68-.22l1.92-3.32a.5.5 0 0 0-.12-.64l-2.03-1.58zM12 15.5A3.5 3.5 0 1 1 12 8.5a3.5 3.5 0 0 1 0 7z"/></svg>
